<svg xmlns="http://www.w3.org/2000/svg" width="115.71000000000001" height="35" viewBox="0 0 115.71000000000001 35"><rect class="svg__rect" x="0" y="0" width="115.71000000000001" height="35" fill="#C24F66"/><rect class="svg__rect" x="115.71000000000001" y="0" width="0" height="35" fill="#389AD5"/><path class="svg__text" d="M17.33 22L14.22 22L14.22 13.47L17.14 13.47Q18.59 13.47 19.34 14.05Q20.10 14.63 20.10 15.78L20.10 15.78Q20.10 16.36 19.78 16.83Q19.47 17.30 18.86 17.56L18.86 17.56Q19.55 17.75 19.93 18.26Q20.31 18.78 20.31 19.51L20.31 19.51Q20.31 20.71 19.53 21.36Q18.76 22 17.33 22L17.33 22ZM15.70 18.15L15.70 20.82L17.35 20.82Q18.04 20.82 18.44 20.47Q18.83 20.13 18.83 19.51L18.83 19.51Q18.83 18.18 17.47 18.15L17.47 18.15L15.70 18.15ZM15.70 14.66L15.70 17.06L17.15 17.06Q17.84 17.06 18.23 16.75Q18.62 16.43 18.62 15.86L18.62 15.86Q18.62 15.23 18.26 14.95Q17.90 14.66 17.14 14.66L17.14 14.66L15.70 14.66ZM25.56 22L24.01 22L27.24 13.47L28.57 13.47L31.80 22L30.25 22L29.55 20.01L26.25 20.01L25.56 22ZM27.90 15.28L26.66 18.82L29.14 18.82L27.90 15.28ZM35.48 18.19L35.48 18.19L35.48 17.39Q35.48 16.19 35.91 15.27Q36.34 14.35 37.14 13.85Q37.94 13.35 38.98 13.35L38.98 13.35Q40.40 13.35 41.26 14.12Q42.12 14.89 42.26 16.29L42.26 16.29L40.78 16.29Q40.68 15.37 40.25 14.96Q39.82 14.55 38.98 14.55L38.98 14.55Q38.02 14.55 37.50 15.26Q36.98 15.96 36.97 17.33L36.97 17.33L36.97 18.09Q36.97 19.47 37.46 20.20Q37.96 20.92 38.91 20.92L38.91 20.92Q39.79 20.92 40.23 20.53Q40.67 20.14 40.78 19.22L40.78 19.22L42.26 19.22Q42.13 20.59 41.25 21.35Q40.37 22.12 38.91 22.12L38.91 22.12Q37.89 22.12 37.12 21.63Q36.34 21.15 35.92 20.26Q35.50 19.37 35.48 18.19ZM48.06 22L46.57 22L46.57 13.47L48.06 13.47L48.06 17.47L48.88 16.46L51.37 13.47L53.16 13.47L49.99 17.25L53.35 22L51.59 22L49.02 18.31L48.06 19.34L48.06 22ZM60.24 22L57.13 22L57.13 13.47L60.05 13.47Q61.50 13.47 62.25 14.05Q63.01 14.63 63.01 15.78L63.01 15.78Q63.01 16.36 62.69 16.83Q62.38 17.30 61.77 17.56L61.77 17.56Q62.46 17.75 62.84 18.26Q63.21 18.78 63.21 19.51L63.21 19.51Q63.21 20.71 62.44 21.36Q61.67 22 60.24 22L60.24 22ZM58.61 18.15L58.61 20.82L60.25 20.82Q60.95 20.82 61.34 20.47Q61.74 20.13 61.74 19.51L61.74 19.51Q61.74 18.18 60.38 18.15L60.38 18.15L58.61 18.15ZM58.61 14.66L58.61 17.06L60.06 17.06Q60.75 17.06 61.14 16.75Q61.53 16.43 61.53 15.86L61.53 15.86Q61.53 15.23 61.17 14.95Q60.81 14.66 60.05 14.66L60.05 14.66L58.61 14.66ZM73.04 22L67.68 22L67.68 13.47L69.17 13.47L69.17 20.82L73.04 20.82L73.04 22ZM77.94 22L76.40 22L79.63 13.47L80.96 13.47L84.18 22L82.64 22L81.94 20.01L78.64 20.01L77.94 22ZM80.29 15.28L79.05 18.82L81.52 18.82L80.29 15.28ZM94.09 22L87.74 22L87.74 21.04L92.15 14.66L87.77 14.66L87.77 13.47L93.95 13.47L93.95 14.41L89.53 20.82L94.09 20.82L94.09 22ZM103.93 22L98.35 22L98.35 13.47L103.89 13.47L103.89 14.66L99.83 14.66L99.83 17.02L103.34 17.02L103.34 18.19L99.83 18.19L99.83 20.82L103.93 20.82L103.93 22Z" fill="#000000"/><path class="svg__text" d="" fill="#FFFFFF" x="128.71"/></svg>